<svg xmlns="http://www.w3.org/2000/svg" width="229" height="41" viewBox="0 0 229 41" fill="none"><rect width="41" height="41" rx="20.5" fill="#4F4429"></rect><path d="M80.0432 13.5705L80.0104 13.5362C79.7473 13.0115 79.1993 12.4526 78.3664 11.8594C77.5334 11.2434 76.5031 10.7187 75.2756 10.2852C74.0481 9.85176 72.7548 9.63503 71.3958 9.63503H71.0999V32.6316C71.3848 32.6316 71.8561 32.5746 72.5137 32.4605C73.1713 32.3236 73.7522 32.1982 74.2563 32.0841L74.3879 32.2894L73.6316 33.1107H68.1078V32.7685C68.1955 31.2172 68.2393 29.392 68.2393 27.2931V9.63503H67.9434C66.5624 9.63503 65.2582 9.84035 64.0306 10.251C62.8031 10.6617 61.7838 11.1636 60.9728 11.7567C60.1618 12.3499 59.6247 12.8974 59.3617 13.3994L59.3288 13.4678L59 13.2967L61.0714 7H62.0578V7.03422L60.7755 9.15593H78.5636L77.2813 7.03422L77.3142 7H78.3006L80.372 13.3994L80.0432 13.5705Z" fill="#4F4429"></path><path d="M98.721 35.2324L99.9704 33.1107H86.1279V32.7685C86.2375 31.2172 86.2923 29.392 86.2923 27.2931V9.63503C86.0074 9.63503 85.5361 9.69206 84.8785 9.80613C84.2209 9.9202 83.64 10.0343 83.1358 10.1483L83.0043 9.94302L83.7606 9.15593H97.899L96.6167 7.03422V7H97.6359L99.5759 13.0571L99.2471 13.2282L99.2142 13.1598C98.9292 12.5895 98.3812 12.0419 97.5702 11.5172C96.7811 10.9697 95.7289 10.5248 94.4137 10.1826C93.0985 9.84035 91.5531 9.66925 89.7776 9.66925H89.12V20.7911H93.6246C93.6684 20.7911 93.6903 20.7683 93.6903 20.7227V17.9508H95.4987L94.0849 24.7608H93.6903V21.544C93.6903 21.4984 93.6684 21.4755 93.6246 21.4755H89.12V32.5974H89.9749C92.3423 32.5974 94.3151 32.4035 95.8933 32.0157C97.4935 31.6278 98.721 31.1373 99.5759 30.5441C100.453 29.951 101.055 29.3464 101.384 28.7304L101.417 28.662V28.5935L101.746 28.7647L99.7074 35.2667H98.721V35.2324Z" fill="#4F4429"></path><path d="M112.621 16.2397C111.438 14.6427 110.276 13.3081 109.136 12.2358V32.6316C109.421 32.6316 109.892 32.5746 110.55 32.4605C111.208 32.3236 111.788 32.1982 112.293 32.0841L112.424 32.2894L111.668 33.1107H107.689V32.7685C107.865 31.7875 108.04 29.9852 108.215 27.3616C108.413 24.738 108.511 22.468 108.511 20.5516V11.6883C107.788 11.1179 107.098 10.6617 106.44 10.3195C105.782 9.97724 105.158 9.73769 104.566 9.60081L104.697 9.15593H111.273C111.69 9.77191 112.139 10.4335 112.621 11.1408C113.104 11.8252 113.586 12.5324 114.068 13.2625C115.011 14.5629 115.964 15.8633 116.929 17.1637L125.741 28.9358V9.63503C125.456 9.63503 124.984 9.69206 124.327 9.80613C123.669 9.9202 123.088 10.0343 122.584 10.1483L122.453 9.94302L123.209 9.15593H127.187V9.49814C127.121 10.0685 127.045 10.7529 126.957 11.5514C126.869 12.3499 126.782 13.2511 126.694 14.2549C126.475 16.8101 126.365 19.2512 126.365 21.5782V33.8978H125.872L112.621 16.2397Z" fill="#4F4429"></path><path d="M141.156 16.2397C139.972 14.6427 138.811 13.3081 137.671 12.2358V32.6316C137.956 32.6316 138.427 32.5746 139.085 32.4605C139.742 32.3236 140.323 32.1982 140.827 32.0841L140.959 32.2894L140.202 33.1107H136.224V32.7685C136.399 31.7875 136.575 29.9852 136.75 27.3616C136.947 24.738 137.046 22.468 137.046 20.5516V11.6883C136.323 11.1179 135.632 10.6617 134.974 10.3195C134.317 9.97724 133.692 9.73769 133.1 9.60081L133.232 9.15593H139.808C140.224 9.77191 140.674 10.4335 141.156 11.1408C141.638 11.8252 142.12 12.5324 142.603 13.2625C143.545 14.5629 144.499 15.8633 145.463 17.1637L154.275 28.9358V9.63503C153.99 9.63503 153.519 9.69206 152.861 9.80613C152.204 9.9202 151.623 10.0343 151.119 10.1483L150.987 9.94302L151.743 9.15593H155.722V9.49814C155.656 10.0685 155.579 10.7529 155.492 11.5514C155.404 12.3499 155.316 13.2511 155.229 14.2549C155.009 16.8101 154.9 19.2512 154.9 21.5782V33.8978H154.407L141.156 16.2397Z" fill="#4F4429"></path><path d="M164.989 32.7685C165.098 31.2172 165.153 29.392 165.153 27.2931V9.63503C164.868 9.63503 164.397 9.69206 163.739 9.80613C163.082 9.9202 162.501 10.0343 161.997 10.1483L161.865 9.94302L162.621 9.15593H168.145V9.49814C168.036 11.3917 167.981 13.2168 167.981 14.9735V32.6316C168.266 32.6316 168.737 32.5746 169.395 32.4605C170.052 32.3236 170.633 32.1982 171.137 32.0841L171.269 32.2894L170.513 33.1107H164.989V32.7685Z" fill="#4F4429"></path><path d="M186.397 33.6241C184.972 33.6241 183.613 33.3959 182.32 32.9396C181.027 32.4605 179.734 31.8902 178.44 31.2286C178.243 31.0917 178.068 30.9662 177.914 30.8521C177.783 30.7381 177.651 30.6354 177.52 30.5441L178.769 34.1031L178.67 34.2743H177.881L175.317 23.8026L175.777 23.6657L176.172 24.8292C176.566 26.0156 177.421 27.2361 178.736 28.4909C180.051 29.7228 181.52 30.7609 183.142 31.605C184.786 32.4263 186.222 32.837 187.449 32.837C188.852 32.837 190.025 32.4833 190.968 31.7761C191.91 31.0689 192.381 30.0765 192.381 28.7989C192.381 27.9091 192.075 27.1334 191.461 26.4718C190.847 25.7874 190.069 25.2285 189.126 24.795C188.206 24.3387 187.055 23.871 185.674 23.3919L185.115 23.1866C183.318 22.5478 181.838 21.9204 180.676 21.3044C179.514 20.6885 178.517 19.8557 177.684 18.8063C176.873 17.734 176.467 16.3994 176.467 14.8024C176.467 13.502 176.774 12.3955 177.388 11.483C178.002 10.5476 178.813 9.84035 179.821 9.36126C180.852 8.88216 181.98 8.64261 183.208 8.64261C184.172 8.64261 185.06 8.75668 185.871 8.98483C186.704 9.21297 187.406 9.48674 187.976 9.80613C188.545 10.1027 189.148 10.4563 189.784 10.867C190.463 11.232 190.869 11.4373 191 11.483L189.85 8.53995L189.883 8.33462H190.77L193.039 17.4032L192.579 17.5059L192.48 17.2663C191.91 15.7834 191 14.4602 189.751 13.2967C188.524 12.1332 187.186 11.232 185.74 10.5932C184.315 9.93161 183.087 9.60081 182.057 9.60081C180.786 9.60081 179.734 9.94302 178.901 10.6274C178.068 11.3119 177.651 12.2929 177.651 13.5705C177.651 14.5515 177.98 15.407 178.638 16.137C179.295 16.8443 180.095 17.426 181.038 17.8823C182.002 18.3386 183.197 18.8177 184.622 19.3196L184.688 19.3538C186.616 20.0383 188.173 20.6771 189.356 21.2702C190.562 21.8634 191.592 22.6619 192.447 23.6657C193.302 24.6695 193.73 25.8901 193.73 27.3274C193.73 28.7418 193.412 29.9168 192.776 30.8521C192.14 31.7875 191.264 32.4833 190.146 32.9396C189.05 33.3959 187.8 33.6241 186.397 33.6241Z" fill="#4F4429"></path><path d="M206.932 32.7343C207.568 31.6164 208.39 29.9738 209.398 27.8065C210.406 25.6163 211.206 23.757 211.798 22.2284L216.04 11.7225C215.601 11.1294 215.13 10.6503 214.626 10.2852C214.144 9.9202 213.607 9.70347 213.015 9.63503C212.971 9.61221 212.927 9.60081 212.883 9.60081C212.84 9.60081 212.796 9.60081 212.752 9.60081L212.949 9.15593H218.44C219.185 11.1408 219.974 13.1142 220.807 15.0762L226.266 27.8065C226.835 29.1297 227.614 30.7837 228.6 32.7685V33.1107H222.714L221.958 32.2894L222.09 32.0841C222.594 32.1982 223.175 32.3236 223.832 32.4605C224.49 32.5746 224.961 32.6316 225.246 32.6316L222.156 25.2399H211.305C211.108 25.7874 210.812 26.5973 210.417 27.6696C209.65 29.7685 209.124 31.4225 208.839 32.6316C209.124 32.6316 209.595 32.5746 210.253 32.4605C210.911 32.3236 211.491 32.1982 211.996 32.0841L212.127 32.2894L211.371 33.1107H206.932V32.7343ZM221.892 24.5897L217.75 14.7682C217.574 14.3804 217.377 13.9697 217.158 13.5362C216.939 13.1028 216.708 12.6921 216.467 12.3043L211.568 24.5897H221.892Z" fill="#4F4429"></path></svg>